# xmcd
# 
# Track frame offsets:
#     150
#     11992
#     25822
#     37887
#     48787
#     61925
#     79700
#     91115
# 
# Disc length: 1383
# 
# Revision: 0
# Processed by: cddbd v1.5.2PL0 Copyright (c) Steve Scherf et al.
# Submitted via: fre:ac v1.1beta1pre4
# 
DISCID=51056508
DTITLE=Various Artist - Midnight Blues
DYEAR=1998
DGENRE=Blues
TTITLE0=Payin' The Cost to be Boss
TTITLE1=The Bourgeois Blues
TTITLE2=Lonesome Dog
TTITLE3=I Got It Band And That Ain't Good
TTITLE4=Begging Mama Blues
TTITLE5=Mama Talk To Your Daughter
TTITLE6=Boom Boom
TTITLE7=Alimony Blues
EXTD=
EXTT0=
EXTT1=
EXTT2=
EXTT3=
EXTT4=
EXTT5=
EXTT6=
EXTT7=
PLAYORDER=
